<svg xmlns="http://www.w3.org/2000/svg" width="48" height="48" viewBox="0 0 24 24" fill="none">
  <circle cx="12" cy="12" r="10" stroke="#3b82f6" stroke-width="1.3" fill="#0f172a"/>
  <circle cx="12" cy="12" r="4" stroke="#3b82f6" stroke-width="1"/>
  <line x1="12" y1="2" x2="12" y2="8" stroke="#3b82f6" stroke-width="1"/>
  <line x1="12" y1="16" x2="12" y2="22" stroke="#3b82f6" stroke-width="1"/>
  <line x1="2" y1="12" x2="8" y2="12" stroke="#3b82f6" stroke-width="1"/>
  <line x1="16" y1="12" x2="22" y2="12" stroke="#3b82f6" stroke-width="1"/>
  <circle cx="12" cy="5" r="1.5" fill="#22c55e"/>
  <circle cx="5" cy="12" r="1.5" fill="#22c55e"/>
  <circle cx="19" cy="12" r="1.5" fill="#22c55e"/>
  <circle cx="12" cy="19" r="1.5" fill="#22c55e"/>
  <circle cx="7" cy="7" r="1" fill="#60a5fa"/>
  <circle cx="17" cy="7" r="1" fill="#60a5fa"/>
  <circle cx="7" cy="17" r="1" fill="#60a5fa"/>
  <circle cx="17" cy="17" r="1" fill="#60a5fa"/>
  <circle cx="4" cy="4" r="0.8" fill="#94a3b8"/>
  <circle cx="20" cy="4" r="0.8" fill="#94a3b8"/>
  <circle cx="4" cy="20" r="0.8" fill="#94a3b8"/>
  <circle cx="20" cy="20" r="0.8" fill="#94a3b8"/>
</svg>
